# xmcd CD database file
#
# Track frame offsets:
#	150
#	20205
#	42060
#	60551
#	83530
#	102420
#	120694
#	140180
#	158242
#	175738
#
# Disc length: 2544 seconds
#
# Revision: 0
# Processed by: cddbd v1.5PL3 Copyright (c) Steve Scherf et al.
# Submitted via: CDex 1.51
#
DISCID=8209ee0a
DTITLE=Randy Hopper - Big Texas Boys
DYEAR=2002
DGENRE=Country
TTITLE0=Texas Through and Through
TTITLE1=Leavin' Her
TTITLE2=Low Down Life
TTITLE3=Whiskey Bottle
TTITLE4=Blue Ridge Blue
TTITLE5=No Turnin' Back Now
TTITLE6=Grayson County Speedway
TTITLE7=Can't Get The Blues
TTITLE8=Pray For Rain
TTITLE9=If I Ever Get Back To Texas
EXTD=YEAR: 2002
EXTT0=
EXTT1=
EXTT2=
EXTT3=
EXTT4=
EXTT5=
EXTT6=
EXTT7=
EXTT8=
EXTT9=
PLAYORDER=
